<?xml version="1.0" encoding="UTF-8" standalone="no"?>
<!-- Created with Inkscape (http://www.inkscape.org/) -->

<svg
   version="1.1"
   id="svg1"
   width="114.39499"
   height="127.77184"
   viewBox="0 0 114.39499 127.77184"
   sodipodi:docname="vu_logo.svg"
   inkscape:version="1.4.2 (f4327f4, 2025-05-13)"
   xmlns:inkscape="http://www.inkscape.org/namespaces/inkscape"
   xmlns:sodipodi="http://sodipodi.sourceforge.net/DTD/sodipodi-0.dtd"
   xmlns="http://www.w3.org/2000/svg"
   xmlns:svg="http://www.w3.org/2000/svg">
  <defs
     id="defs1" />
  <sodipodi:namedview
     id="namedview1"
     pagecolor="#ffffff"
     bordercolor="#000000"
     borderopacity="0.25"
     inkscape:showpageshadow="2"
     inkscape:pageopacity="0.0"
     inkscape:pagecheckerboard="0"
     inkscape:deskcolor="#d1d1d1"
     inkscape:zoom="4.3906786"
     inkscape:cx="41.451452"
     inkscape:cy="65.935139"
     inkscape:window-width="2560"
     inkscape:window-height="1351"
     inkscape:window-x="-9"
     inkscape:window-y="-9"
     inkscape:window-maximized="1"
     inkscape:current-layer="g1">
    <inkscape:page
       x="0"
       y="8.33753e-11"
       inkscape:label="1"
       id="page1"
       width="114.39499"
       height="127.77184"
       margin="0"
       bleed="0" />
  </sodipodi:namedview>
  <g
     id="g1"
     inkscape:groupmode="layer"
     inkscape:label="1"
     transform="translate(0,-0.0036032)">
    <g
       id="group-R5"
       style="fill:#1f1a17;fill-opacity:1">
      <path
         id="path3"
         d="m 36.6289,357.996 44.4063,8.906 -1.7149,8.543 -44.4023,-8.902 c -8.2617,-1.66 -16.2657,2.691 -18.0039,11.324 -1.75,8.735 4.1797,15.688 12.25,17.309 l 44.4101,8.914 -1.7187,8.535 -44.4063,-8.906 C 15.0586,401.23 6.42969,390.215 9.21875,376.324 12.0078,362.43 24.2383,355.508 36.6289,357.996"
         style="fill:#1f1a17;fill-opacity:1;fill-rule:evenodd;stroke:none"
         transform="matrix(0.13333333,0,0,-0.13333333,0,128)" />
      <path
         id="path4"
         d="m 99.9648,310.273 -48.6562,-17.765 38.3203,46.086 -3.3164,9.09 -62.9531,-22.981 2.9844,-8.18 48.6562,17.75 -38.3203,-46.082 3.3164,-9.082 62.9569,22.969 -2.9882,8.195"
         style="fill:#1f1a17;fill-opacity:1;fill-rule:evenodd;stroke:none"
         transform="matrix(0.13333333,0,0,-0.13333333,0,128)" />
      <path
         id="path5"
         d="m 112.43,283.035 -59.887,-30.105 4.0429,-8.039 59.8831,30.097 -4.039,8.047"
         style="fill:#1f1a17;fill-opacity:1;fill-rule:evenodd;stroke:none"
         transform="matrix(0.13333333,0,0,-0.13333333,0,128)" />
      <path
         id="path6"
         d="m 146.102,225.457 -53.6567,-13.953 34.8277,43.172 -4.972,7.722 -43.6408,-56.023 3.4257,-5.312 68.9921,16.667 -4.976,7.727"
         style="fill:#1f1a17;fill-opacity:1;fill-rule:evenodd;stroke:none"
         transform="matrix(0.13333333,0,0,-0.13333333,0,128)" />
      <path
         id="path7"
         d="m 136.68,176.348 18.968,-21.809 5.918,5.149 -18.968,21.804 16.539,14.387 18.968,-21.809 5.922,5.149 -24.687,28.386 -50.547,-43.972 24.684,-28.379 5.921,5.152 -18.968,21.809 16.25,14.133"
         style="fill:#1f1a17;fill-opacity:1;fill-rule:evenodd;stroke:none"
         transform="matrix(0.13333333,0,0,-0.13333333,0,128)" />
      <path
         id="path8"
         d="m 211.363,124.156 c -5.254,-6.218 -13.886,-7.82 -20.539,-2.207 l -11.336,9.582 19.278,22.824 11.336,-9.582 c 6.656,-5.625 6.445,-14.472 1.261,-20.617 z m 3.809,26.614 -17.992,15.207 -43.254,-51.204 6.648,-5.625 13.785,16.321 10.532,-8.906 -3.618,-24.895 7.61,-6.4258 3.953,26.4848 c 9.059,-3.516 18.879,-0.657 25.18,6.804 7.906,9.367 7.828,23.215 -2.844,32.239"
         style="fill:#1f1a17;fill-opacity:1;fill-rule:evenodd;stroke:none"
         transform="matrix(0.13333333,0,0,-0.13333333,0,128)" />
      <path
         id="path9"
         d="m 263.375,118.484 c -9.719,5.762 -21.074,4.817 -27.227,-5.554 -6.5,-10.95 0.618,-19.4066 8.723,-28.4417 4.301,-4.7735 8.805,-10.125 4.801,-16.875 -3.66,-6.1719 -10.633,-7.0469 -17.305,-3.0938 -7.82,4.6485 -10.027,12.7461 -5.34,20.6446 l -7.496,4.4531 c -7.273,-12.2734 -3.023,-24.8125 8.5,-31.6484 10.707,-6.3516 23.028,-5.0899 29.426,5.7031 6.789,11.4414 -0.969,20.4961 -8.633,29.1562 -4.527,5.1407 -8.457,10.1409 -4.894,16.1519 3.273,5.508 9.508,6.274 15.519,2.708 6.668,-3.958 8.274,-10.254 4.34,-17.2661 l 7.496,-4.4531 c 6.215,10.6762 2.875,22.1212 -7.91,28.5152"
         style="fill:#1f1a17;fill-opacity:1;fill-rule:evenodd;stroke:none"
         transform="matrix(0.13333333,0,0,-0.13333333,0,128)" />
      <path
         id="path10"
         d="m 272.426,36.8047 8.273,-3.543 26.379,61.5899 -8.269,3.5468 -26.383,-61.5937"
         style="fill:#1f1a17;fill-opacity:1;fill-rule:evenodd;stroke:none"
         transform="matrix(0.13333333,0,0,-0.13333333,0,128)" />
      <path
         id="path11"
         d="m 361.488,77 -41.715,12.207 -2.207,-7.539 16.633,-4.8633 -16.609,-56.7852 8.363,-2.4453 16.61,56.7813 16.722,-4.8946 2.203,7.5391"
         style="fill:#1f1a17;fill-opacity:1;fill-rule:evenodd;stroke:none"
         transform="matrix(0.13333333,0,0,-0.13333333,0,128)" />
      <path
         id="path12"
         d="m 370.898,26.043 15.567,32.7539 6.055,-35.7031 z m 14.262,47.3242 -31.894,-63.293 9.105,-1.22654 4.797,9.68364 26.937,-3.6719 2.129,-10.62502 9.11,-1.23829 -13.922,69.52341 -6.262,0.8477"
         style="fill:#1f1a17;fill-opacity:1;fill-rule:evenodd;stroke:none"
         transform="matrix(0.13333333,0,0,-0.13333333,0,128)" />
      <path
         id="path13"
         d="m 447.094,42.2813 c -6.586,1.8593 -12.606,3.9179 -12.875,10.9101 -0.25,6.4063 4.582,10.4297 11.562,10.6953 7.75,0.3008 12.52,-4.1133 13.024,-12.1406 l 8.707,0.332 c -0.574,12.3438 -9.59,20.1367 -22.129,19.6485 -11.289,-0.4297 -20.32,-7.3907 -19.852,-19.4532 0.492,-12.7226 11.063,-15.957 22.785,-19.1406 6.196,-1.6797 12.883,-3.7226 13.188,-11.5625 0.277,-7.1758 -5.102,-11.69921 -12.852,-12.00389 -9.093,-0.34766 -15.347,5.25389 -15.703,14.44529 l -8.707,-0.3398 C 424.797,9.41016 435.176,1.19141 448.57,1.70703 461.012,2.1875 470.676,9.94141 470.191,22.4805 469.68,35.7773 458.238,39.168 447.094,42.2813"
         style="fill:#1f1a17;fill-opacity:1;fill-rule:evenodd;stroke:none"
         transform="matrix(0.13333333,0,0,-0.13333333,0,128)" />
      <path
         id="path14"
         d="m 550.453,35.8984 -32.824,44.7071 -8.746,-2.8438 43.004,-56.4922 6.004,1.9532 1.527,70.9453 -8.738,-2.8438 -0.227,-55.4258"
         style="fill:#1f1a17;fill-opacity:1;fill-rule:evenodd;stroke:none"
         transform="matrix(0.13333333,0,0,-0.13333333,0,128)" />
      <path
         id="path15"
         d="m 571.246,100.457 28.871,-60.4687 8.113,3.875 -28.867,60.4727 -8.117,-3.879"
         style="fill:#1f1a17;fill-opacity:1;fill-rule:evenodd;stroke:none"
         transform="matrix(0.13333333,0,0,-0.13333333,0,128)" />
      <path
         id="path16"
         d="m 636.82,68.4844 -31.234,50.2536 -7.398,-4.597 35.375,-56.9262 26.027,16.1836 -4.145,6.6602 -18.625,-11.5742"
         style="fill:#1f1a17;fill-opacity:1;fill-rule:evenodd;stroke:none"
         transform="matrix(0.13333333,0,0,-0.13333333,0,128)" />
      <path
         id="path17"
         d="m 665.867,164.051 33.723,-39.309 -56.606,19.668 -7.336,-6.289 43.629,-50.8554 6.61,5.6719 -33.719,39.2965 56.605,-19.668 7.336,6.297 -43.629,50.852 -6.613,-5.664"
         style="fill:#1f1a17;fill-opacity:1;fill-rule:evenodd;stroke:none"
         transform="matrix(0.13333333,0,0,-0.13333333,0,128)" />
      <path
         id="path18"
         d="m 737.18,152.977 -16.492,13.878 18.613,22.125 -6.004,5.063 -18.617,-22.141 -16.785,14.121 18.617,22.129 -6.008,5.059 -24.231,-28.801 51.301,-43.152 24.227,28.801 -6.008,5.054 -18.613,-22.136"
         style="fill:#1f1a17;fill-opacity:1;fill-rule:evenodd;stroke:none"
         transform="matrix(0.13333333,0,0,-0.13333333,0,128)" />
      <path
         id="path19"
         d="m 742.422,262.148 44.223,-26.972 -59.93,1.219 -5.035,-8.262 57.226,-34.903 4.535,7.442 -44.226,26.973 59.933,-1.219 5.036,8.262 -57.227,34.902 -4.535,-7.442"
         style="fill:#1f1a17;fill-opacity:1;fill-rule:evenodd;stroke:none"
         transform="matrix(0.13333333,0,0,-0.13333333,0,128)" />
      <path
         id="path20"
         d="m 817.164,308.238 c -12.273,5.149 -20.172,-3.797 -27.691,-12.578 -4.457,-5.183 -8.871,-9.773 -15.317,-7.066 -5.918,2.476 -7.523,8.543 -4.824,14.988 2.996,7.148 9.012,9.617 16.504,6.68 l 3.367,8.039 c -11.43,4.683 -22.301,-0.207 -27.148,-11.77 -4.364,-10.422 -1.86,-21.535 9.258,-26.203 11.742,-4.91 19.136,3.305 26.964,12.578 4.133,4.907 8.809,10.11 16.047,7.074 6.617,-2.777 8.446,-9.562 5.446,-16.71 -3.516,-8.387 -11.231,-11.692 -19.704,-8.133 l -3.367,-8.039 c 13.153,-5.508 24.981,0.422 30.164,12.785 4.813,11.472 1.864,23.515 -9.699,28.355"
         style="fill:#1f1a17;fill-opacity:1;fill-rule:evenodd;stroke:none"
         transform="matrix(0.13333333,0,0,-0.13333333,0,128)" />
      <path
         id="path21"
         d="m 777.652,344.859 64.18,-19.254 2.586,8.614 -64.184,19.258 -2.582,-8.618"
         style="fill:#1f1a17;fill-opacity:1;fill-rule:evenodd;stroke:none"
         transform="matrix(0.13333333,0,0,-0.13333333,0,128)" />
      <path
         id="path22"
         d="m 841.875,406.813 c -13.07,2.511 -18.953,-7.872 -24.508,-18.004 -3.289,-6.008 -6.664,-11.399 -13.527,-10.09 -6.305,1.211 -9.129,6.816 -7.809,13.679 1.457,7.622 6.836,11.274 14.77,9.946 l 1.64,8.554 c -12.148,2.235 -21.777,-4.796 -24.14,-17.113 -2.129,-11.094 2.613,-21.465 14.461,-23.726 12.508,-2.395 18.039,7.168 23.797,17.859 3.031,5.652 6.531,11.711 14.242,10.234 7.051,-1.347 10.238,-7.617 8.777,-15.234 -1.707,-8.926 -8.582,-13.762 -17.605,-12.02 l -1.641,-8.554 c 14.008,-2.688 24.363,5.562 26.887,18.719 2.34,12.226 -3.024,23.386 -15.344,25.75"
         style="fill:#1f1a17;fill-opacity:1;fill-rule:evenodd;stroke:none"
         transform="matrix(0.13333333,0,0,-0.13333333,0,128)" />
      <path
         id="path23"
         d="m 359.109,299.969 c 3.895,-1.77 6.368,4.25 1.95,5.84 -3.539,1.23 -6.543,-3.899 -1.95,-5.84"
         style="fill:#1f1a17;fill-opacity:1;fill-rule:evenodd;stroke:none"
         transform="matrix(0.13333333,0,0,-0.13333333,0,128)" />
      <path
         id="path24"
         d="m 574.684,480.75 c 2.832,-3.359 4.066,-6.191 4.773,-10.969 -3.008,2.309 -6.898,3.723 -11.668,3.899 0.703,-3.36 2.824,-6.192 1.234,-12.383 l -0.175,-0.352 c -2.301,4.246 -4.953,5.84 -7.25,8.489 -6.903,7.429 -4.426,19.097 -0.535,30.066 0,4.602 -2.297,9.023 -7.426,9.023 -13.266,-2.128 -24.938,-13.269 -38.203,-12.207 -4.598,9.551 -7.25,24.582 -19.985,30.247 17.688,-2.122 29.184,-11.672 35.196,-20.872 11.492,9.903 25.293,21.758 41.738,17.161 5.84,-1.954 9.199,-6.196 10.433,-12.563 1.067,-10.074 -5.125,-22.996 5.485,-31.836 -4.242,-2.305 -9.375,3.711 -13.617,2.297 z m -83.661,15.566 c -1.589,9.2 -5.476,19.278 -11.668,29.004 5.301,1.946 12.911,-1.59 17.153,-5.832 6.015,-5.664 9.375,-14.508 11.324,-23.347 -3.187,0.175 -12.559,-0.176 -16.809,0.175 z m -33.953,4.422 c 0.356,2.121 2.301,6.367 4.067,9.731 5.308,2.476 9.726,5.664 13.441,9.375 4.953,-4.602 9.375,-15.742 10.078,-23.352 -8.66,0.352 -18.386,1.77 -27.586,4.246 z m -2.652,7.785 c -5.84,-10.437 -8.664,-21.23 -9.375,-35.195 l -11.492,11.492 c -1.949,-3.535 -4.602,-9.375 -7.25,-13.257 -1.242,2.292 -3.895,6.003 -5.84,9.011 2.652,7.781 3.355,12.031 2.297,22.11 3.715,3.183 16.269,13.796 27.062,19.101 9.02,3.184 15.032,6.192 16.801,10.078 1.234,-1.23 4.067,-3.183 6.192,-4.773 -3.715,-6.543 -16.977,-14.856 -28.477,-17.336 1.949,-1.406 6.543,-1.406 10.082,-1.231 z m -42.27,-42.453 c -1.058,-7.957 -0.175,-8.836 0,-11.492 0.356,-3.711 -7.25,-4.598 -11.851,-5.476 -7.074,-2.305 -13.793,-4.778 -21.043,-8.848 0.883,7.066 4.949,10.437 9.726,13.797 2.473,1.23 5.485,2.644 8.133,5.129 3.539,9.019 3.539,26.172 3.715,40.144 3.895,-0.351 13.797,-1.062 18.215,-1.238 1.418,-12.023 -5.48,-21.75 -6.895,-32.016 z M 309.746,450.867 c -1.941,-3.183 -0.707,-7.781 0,-11.316 -2.832,-0.539 -6.547,-0.891 -11.324,-1.242 -0.176,6.543 2.125,12.019 4.25,16.269 6.719,6.895 15.383,14.68 21.574,20.52 2.301,2.468 5.129,5.476 8.492,7.781 l 38.731,2.644 0.176,1.243 c -2.473,1.589 -7.075,1.242 -9.903,1.242 l 0.528,4.422 c 10.441,4.773 22.285,6.008 33.429,6.718 -0.176,-9.55 0.356,-21.933 -1.234,-31.308 -14.152,-2.649 -40.328,5.664 -56.774,5.312 z m -23.527,8.137 c 1.769,6.543 2.476,14.148 5.133,19.629 9.726,7.605 23.699,15.562 36.253,21.043 10.793,0.351 21.047,0 30.954,-1.59 -0.707,-3.012 -1.239,-6.02 -1.59,-9.731 -9.375,0.715 -18.395,1.418 -28.301,1.418 -9.551,-3.183 -20.516,-8.664 -29.18,-15.918 -1.418,-5.3 0.707,-9.199 1.59,-14.5 -3.539,-0.351 -10.258,-0.175 -14.5,-0.351 z m 42.625,136.707 c 3.183,-0.703 6.898,-2.473 8.668,-6.016 0,0 2.656,0.364 5.656,0.535 0.711,-3.535 0.711,-5.835 1.066,-9.199 -4.425,-0.523 -12.734,-2.117 -16.273,-5.125 l -2.652,5.481 c -3.711,6.011 -1.77,4.773 -4.778,8.133 2.657,0.175 6.727,-2.122 10.082,-4.239 -0.707,3.887 -1.414,7.071 -1.769,10.43 z m 19.808,-51.992 c -2.652,-0.535 -7.961,-1.414 -11.672,-2.305 l -0.707,0.715 -7.074,29.18 c 3.008,2.832 11.145,4.597 15.387,4.597 z m 0,-17.332 c -6.894,0 -9.902,4.597 -10.961,10.078 4.774,1.238 14.852,3.355 20.336,2.305 1.059,-7.258 -2.476,-12.383 -9.375,-12.383 z m 9.551,17.156 -5.48,0.352 -3.364,31.296 c 6.016,-0.523 10.618,-3.535 12.028,-7.593 2.832,-5.317 -3.887,-18.047 -3.184,-24.055 z m 30.242,31.648 c 6.192,-4.949 11.676,-11.316 16.098,-18.914 -1.238,-0.175 -4.07,-0.886 -7.074,-1.953 -5.129,8.496 -15.567,20.867 -26.352,23.875 l 1.77,-4.414 c 8.836,-5.484 13.968,-10.965 19.277,-21.055 -9.902,-4.058 -20.519,-9.902 -29.894,-18.21 0.882,5.128 -1.235,10.429 1.066,16.621 3.891,9.914 5.48,20.515 -6.016,27.597 -2.652,1.231 -5.48,1.77 -8.488,2.117 -0.355,3.188 -0.355,6.719 -0.883,9.731 12.379,0.523 30.418,-6.543 40.496,-15.395 z m -12.199,83.125 c 1.059,1.067 2.473,1.782 4.242,0.539 1.235,-1.242 1.235,-3.007 0.532,-4.597 -1.059,-1.242 -3.008,-1.594 -4.422,-0.18 -1.594,1.059 -1.239,2.832 -0.352,4.238 z m 18.391,4.778 c 3.539,-0.528 5.66,-4.414 5.66,-7.957 -0.356,-2.473 -1.414,-4.778 -3.359,-6.543 0.531,-6.543 1.945,-24.231 2.652,-34.66 l 26.711,-10.789 c -2.485,-4.426 -3.367,-8.665 -3.895,-13.086 l -34.668,15.203 c 0,14.676 0.532,29.367 1.067,43.691 -6.727,4.949 -3.543,15.203 5.832,14.141 z m 49.343,-63.133 39.793,6.016 c 5.485,-14.504 8.141,-60.317 -7.953,-73.938 -17.683,9.024 -31.129,43.867 -31.84,67.922 z m -35.195,-81.887 c 10.789,12.371 24.942,22.637 44.219,30.059 2.473,-4.59 6.543,-9.016 9.902,-13.086 -1.593,-3.359 -5.836,-6.367 -14.328,-8.66 -10.254,-5.305 -22.812,-16.809 -26.879,-18.926 z m -3.887,-3.183 13.793,-10.442 c 0.176,-0.523 0,-1.414 -0.175,-1.941 -5.133,0.351 -13.266,1.062 -18.219,1.418 -0.356,2.469 -0.707,3.887 -0.883,7.066 1.941,1.594 3.535,2.832 5.484,3.899 z m 43.153,44.211 c 0.883,-2.297 2.121,-4.067 3.535,-6.719 -10.961,-3.711 -20.691,-9.903 -29.887,-15.207 -3.183,3.176 -7.25,9.187 -2.476,11.496 z m -7.074,24.414 c 1.058,-6.731 3.003,-13.45 4.953,-19.641 -3.719,-1.23 -11.321,-4.238 -16.629,-5.477 -1.59,6.192 -3,15.204 -2.653,22.11 5.309,0.879 9.375,1.765 14.329,3.008 z m -9.727,27.937 c -5.129,4.246 -6.898,14.324 -6.191,20.695 0.175,2.481 2.476,6.192 5.308,5.836 5.125,-2.476 6.188,-23.171 0.883,-26.531 z m 1.766,-5.652 c 7.429,9.539 8.488,24.226 1.949,33.953 6.187,1.769 14.144,1.418 20.512,-0.711 1.062,-8.137 0.711,-17.863 -5.657,-27.238 l 3.891,-5.828 c -3.715,-0.715 -10.082,-1.594 -15.035,-2.305 -0.352,-4.602 0.535,-11.672 1.242,-15.742 -2.656,-0.703 -9.906,-2.473 -13.617,-2.473 0.347,6.895 1.941,14.148 6.715,20.344 z m -63.137,-94.27 c 8.84,15.203 24.402,27.586 42.625,35.196 -0.711,-5.84 1.769,-8.497 5.48,-12.559 l -13.621,-13.621 -8.84,-6.543 c -8.843,0.351 -15.918,-0.703 -25.644,-2.473 z m -5.484,18.391 c 10.257,8.308 28.828,19.629 44.39,22.461 1.238,0 1.598,-0.879 2.832,-0.879 -22.637,-9.731 -36.433,-23.352 -45.98,-37.149 -0.711,5.133 -0.711,10.614 -1.242,15.567 z m 1.765,-25.473 c 8.492,4.074 19.813,5.481 28.305,4.778 0.531,-2.293 0.883,-3.711 1.058,-5.829 -10.968,-0.89 -21.753,-2.128 -32.371,-6.195 0,2.649 1.598,4.777 3.008,7.246 z m 40.328,158.645 2.477,14.863 3.89,-15.215 75.7,2.481 21.218,-5.84 -20.867,-5.305 -75.523,-0.348 -2.117,-15.57 -4.25,14.328 h -2.653 c 0.887,3.36 1.242,5.657 -0.883,10.078 z M 677.617,430.879 v 265.644 l -493.265,0.172 c 0,-107.144 -1.383,-215.679 -0.735,-322.351 h 291.539 c 3.524,19.226 28.203,41.941 16.403,63.613 l -14.153,16.621 c 3.364,1.067 8.141,2.656 11.676,4.602 l 15.563,-15.395 c 0.886,-5.301 3.363,-11.668 5.484,-15.203 -6.899,-11.504 -12.555,-28.301 -14.68,-39.269 -5.058,-1.219 -7.363,-5.36 -4.547,-14.969 h 16.223 c 0.73,11.992 7.609,19.062 11.844,29.648 5.308,13.274 5.84,26.887 0.355,33.789 -11.847,9.367 -21.398,19.27 -33.777,29.883 -1.414,0.352 -2.832,1.594 -4.246,1.238 -1.414,-0.347 2.121,-5.125 3.89,-5.839 -22.636,-9.547 -44.921,-6.715 -68.625,-3.883 -0.175,5.476 -0.175,9.898 1.774,15.203 3.18,-3.711 4.594,-6.184 6.719,-11.848 3.183,2.832 7.25,10.793 9.55,14.328 l 14.325,-14.675 c 0.711,9.546 2.828,26.699 6.195,33.425 10.074,-2.48 20.867,-4.074 31.121,-5.136 1.418,-5.829 -1.059,-15.555 4.246,-15.555 5.309,-0.188 2.652,11.668 2.301,15.555 4.777,-0.704 11.32,-0.528 16.629,-0.528 1.234,-5.476 0.347,-14.504 4.949,-14.328 4.773,0.18 2.117,10.442 1.941,14.856 4.778,0.711 9.551,0.711 15.036,2.48 -8.84,-18.035 -5.305,-42.09 7.25,-54.297 l -14.325,-49.519 c -4.937,-1.594 -5.832,-6.172 -2.675,-14.797 h 155.839 c 0.02,15.703 0.176,38.136 0.176,56.535"
         style="fill:#1f1a17;fill-opacity:1;fill-rule:evenodd;stroke:none"
         transform="matrix(0.13333333,0,0,-0.13333333,0,128)" />
      <path
         id="path25"
         d="m 540.727,256.492 c -23.524,-9.551 -39.438,-36.789 -67.207,-40.5 6.543,3.188 12.027,7.074 15.21,9.375 0.176,1.235 -0.531,1.594 -1.773,1.594 -9.902,-5.313 -16.094,-9.727 -25.469,-12.207 l -15.914,-3.184 c -0.883,0.176 -2.472,-0.351 -3.363,1.59 3.891,2.121 16.098,5.656 22.461,8.852 6.723,3.008 11.148,6.004 17.336,10.254 0.531,1.062 0.176,2.656 -2.121,2.117 -5.664,-3.535 -10.262,-5.481 -16.274,-8.485 -8.843,-4.074 -15.386,-6.543 -23.879,-9.027 -2.472,-0.523 -5.125,0.18 -5.656,1.418 0.887,0.527 -0.351,1.066 2.656,2.481 3.711,1.945 13.969,5.3 21.043,9.011 6.895,3.547 12.379,6.543 18.043,10.793 0.528,1.414 -0.179,2.305 -2.125,1.594 -13.793,-8.313 -24.41,-12.734 -39.793,-18.391 -2.121,-0.711 -5.129,-1.242 -6.543,-0.539 v 3.723 l 20.516,10.781 c 6.188,3.008 10.965,6.016 17.328,10.789 l 15.742,13.801 v 2.297 c -10.965,-1.77 -22.808,-5.129 -35.371,0 v 1.59 c 6.012,1.594 12.563,2.48 18.395,4.074 9.902,2.645 19.101,7.242 30.062,9.727 12.028,1.765 27.239,1.941 40.504,3.359 3.535,-6.899 5.66,-15.219 6.192,-26.887 z m -0.176,-39.969 c -0.711,-3.183 -2.481,-3.007 -4.071,-2.121 -5.304,8.489 -8.488,18.567 -8.667,28.477 3.007,3 7.964,6.894 13.621,9.016 1.238,-10.079 1.238,-25.469 -0.883,-35.372 z m -98.867,-36.261 c -2.125,-1.946 -10.61,-4.239 -13.442,-4.239 l -0.176,4.598 c 5.661,0.703 11.493,2.824 16.094,6.547 1.238,-3.188 -1.058,-5.844 -2.476,-6.906 z m -14.149,36.789 c 1.59,-0.356 2.301,0.183 3.184,-2.473 0.531,-1.418 3.715,-1.941 6.543,-3.183 1.59,-2.305 3.715,-2.481 5.48,-2.832 -0.176,-3.184 0,-11.844 0,-15.391 0,-4.414 -12.023,-7.07 -14.851,-6.895 z m -1.594,42.273 c 4.25,0.176 10.082,1.946 13.27,3.887 l 0.348,-24.231 -12.911,-7.246 z m -0.351,10.789 c 5.305,1.059 10.254,2.473 14.855,6.367 1.59,-2.125 1.946,-5.132 0,-7.078 -4.422,-3.183 -7.777,-4.422 -14.504,-5.3 -0.351,1.414 -0.531,4.421 -0.351,6.011 z m -0.531,35.2 c 6.898,1.05 10.609,2.292 14.859,5.828 V 283.73 c -1.594,-5.656 -7.785,-7.074 -14.859,-9.015 z m 0,12.371 c 4.066,0.714 11.14,1.765 14.675,6.543 1.77,-4.063 -0.175,-7.422 -3.535,-9.903 -2.832,-1.941 -8.488,-3.886 -11.316,-4.062 0,1.406 -0.531,7.246 0.176,7.422 z M 408.258,173.895 c -0.352,9.55 1.414,16.804 14.148,20.339 0.528,-0.171 0.887,-18.211 0.887,-18.562 -4.426,-1.067 -10.262,-1.238 -15.035,-1.777 z m -31.485,-4.063 c -0.175,6.543 -2.652,15.203 -8.664,19.277 -4.066,3.008 -10.789,4.778 -15.918,4.246 l -0.707,95.325 c 14.153,-0.176 24.231,6.718 23.52,23.703 l 23.703,2.652 c -0.176,-11.68 8.664,-21.93 21.398,-21.93 l 2.653,-93.554 c -15.567,-4.426 -20.516,-12.922 -19.453,-26.711 z m -19.097,-1.414 c -2.301,0 -4.242,1.062 -5.485,3.887 v 16.98 c 5.129,0 9.375,-1.418 13.086,-4.25 3.895,-3.531 6.727,-8.133 6.727,-15.555 -4.602,-0.539 -9.734,-1.062 -14.328,-1.062 z m -6.367,136.18 c -0.18,3.183 0.531,5.84 4.066,6.191 3.535,0.352 9.727,0.703 15.211,1.066 -0.176,-12.738 -5.133,-18.925 -19.277,-18.925 0,3.711 0.175,7.066 0,11.668 z m 68.621,12.031 v -18.574 l -4.071,0.175 c -7.074,1.243 -12.379,9.375 -12.379,16.985 4.778,0.703 11.145,0.879 16.45,1.414 z m -72.871,-8.496 -0.348,-127.156 c -1.063,1.589 -2.652,2.468 -4.602,4.058 l 0.356,127.348 c 0,3.711 0.703,6.187 3.183,6.363 11.321,1.067 26.879,2.656 39.79,4.602 13.269,1.945 29.363,3.359 42.98,5.3 1.059,1.243 0.707,2.485 -0.707,3.723 l -85.246,-9.91 c -2.297,-1.059 -4.422,-3.012 -4.422,-3.891 0,-2.117 -0.352,-8.132 -0.352,-9.898 0,-42.277 -0.179,-82.07 -0.535,-121.867 l -4.949,1.062 c -0.707,39.797 -0.355,86.137 -0.355,129.113 0,2.469 -0.352,6.719 0.355,8.313 0.707,1.59 4.949,1.59 4.949,1.59 29.539,3.008 59.957,7.258 89.668,10.969 1.418,0.527 1.242,2.293 -0.523,3.359 -29.188,-3.188 -63.852,-5.844 -92.153,-9.199 -1.058,0 -5.304,-0.703 -6.718,-2.649 -1.414,-1.953 -1.239,-6.015 -1.239,-7.429 0,-44.036 1.59,-89.493 0.532,-134.067 h -4.067 c -0.176,45.461 -0.707,102.766 -0.707,141.672 0,4.063 1.414,7.781 7.426,8.137 36.609,3.179 59.246,4.234 88.785,7.957 8.664,0 16.274,-0.891 20.34,-7.254 3.184,-3.711 1.234,-10.781 -4.422,-13.266 -3.535,-1.59 -7.254,-2.117 -11.496,-2.652 -23.168,-2.648 -46.336,-5.305 -69.508,-7.961 -3.355,-0.527 -5.125,-2.832 -6.015,-6.367 z m 314.289,56.543 h -477.61 c 1.766,-62.422 25.907,-116.531 59.86,-157.356 97.804,-116.1872 289.523,-114.4216 383.082,9.203 32.265,45.067 49.531,87.665 50.691,148.153 h -9.305 c -0.054,-30.93 -10.464,-71.809 -21.226,-93.153 -2.477,-2.121 -3.36,-2.648 -6.719,-3.886 -9.902,-4.074 -15.211,-3.711 -25.644,-7.071 -2.125,-1.066 -4.957,-1.957 -5.485,-3.546 7.254,0 14.68,1.242 21.227,2.832 -3.184,-1.946 -5.485,-3.887 -7.606,-4.954 -23.879,-13.972 -51.64,-27.937 -76.933,-38.203 5.125,17.864 1.941,48.821 -6.727,71.457 7.785,1.243 15.918,2.657 23.172,4.778 7.605,-7.082 10.965,-23.703 11.496,-33.078 3.535,4.421 3.715,7.429 4.07,13.972 -1.058,6.196 -5.132,15.031 -9.375,22.114 6.368,2.82 15.207,7.781 21.934,10.253 6.895,2.657 16.621,4.598 20.516,6.539 -2.481,1.946 -9.555,0.54 -13.621,0 16.449,11.145 38.203,19.817 57.656,25.825 -0.883,3.355 -10.961,0 -14.328,0 9.062,6.968 16.925,16.863 20.875,26.121"
         style="fill:#1f1a17;fill-opacity:1;fill-rule:evenodd;stroke:none"
         transform="matrix(0.13333333,0,0,-0.13333333,0,128)" />
      <path
         id="path26"
         d="m 361.957,180.992 c -4.949,1.594 -7.074,-4.949 -2.824,-7.066 4.597,-1.594 7.074,5.125 2.824,7.066"
         style="fill:#1f1a17;fill-opacity:1;fill-rule:evenodd;stroke:none"
         transform="matrix(0.13333333,0,0,-0.13333333,0,128)" />
      <path
         id="path27"
         d="m 393.48,243.367 c 0.176,-5.137 1.77,-11.679 -3.183,-12.383 -7.074,-0.711 -3.891,7.957 -5.832,10.789 -3.012,1.235 -10.086,-1.941 -11.676,3.54 0.707,7.07 6.899,6.367 11.316,7.246 -0.531,5.132 -3.359,9.375 4.071,11.14 6.012,-0.527 3.715,-5.652 4.246,-9.363 3.887,-0.188 10.609,0.699 10.785,-5.141 0.18,-5.828 -5.484,-4.058 -9.727,-5.828 z m 13.618,5.481 c -0.172,6.89 -4.598,8.308 -10.61,8.672 0.176,3.535 -0.883,7.07 -2.832,9.011 -7.426,3.535 -16.625,-0.527 -14.324,-10.078 -4.07,-0.715 -11.672,-3.359 -11.141,-10.254 0.528,-6.902 4.598,-8.847 12.555,-8.496 0.352,-5.832 4.067,-12.383 9.906,-11.492 5.836,0.887 7.071,7.43 7.071,14.324 4.601,0 10.086,2.473 9.375,8.313"
         style="fill:#1f1a17;fill-opacity:1;fill-rule:evenodd;stroke:none"
         transform="matrix(0.13333333,0,0,-0.13333333,0,128)" />
      <path
         id="path28"
         d="m 477.055,549.91 c -0.707,4.063 -1.766,8.66 -2.297,12.371 3.89,0.539 6.363,0.715 8.84,1.242 l -1.059,6.543 c -3.184,-0.878 -3.891,-0.703 -8.316,-1.945 -0.883,4.074 -1.41,7.434 -2.293,12.387 3.183,0.347 6.008,0.523 8.84,0.879 -0.18,1.941 -0.356,4.07 -0.532,6.187 -2.125,-0.523 -6.898,-1.051 -9.375,-1.941 -0.883,4.426 -1.414,7.605 -1.59,12.91 -1.418,-0.527 -5.484,-0.715 -6.718,-1.238 1.414,-4.602 1.941,-8.313 2.648,-12.563 -2.648,-0.347 -5.301,-0.879 -9.367,-1.226 l 0.879,-5.84 c 3.187,0.523 7.957,1.765 9.555,1.765 0.703,-4.953 1.41,-8.308 1.765,-12.207 -2.832,-0.879 -6.363,-1.054 -9.195,-1.418 l 1.414,-6.531 c 4.773,1.055 6.191,1.406 8.668,2.293 0,-4.07 0.883,-9.723 0.351,-12.906 2.832,0 5.84,0.879 7.782,1.238"
         style="fill:#1f1a17;fill-opacity:1;fill-rule:evenodd;stroke:none"
         transform="matrix(0.13333333,0,0,-0.13333333,0,128)" />
      <path
         id="path29"
         d="m 417.926,184.883 c -4.246,2.117 -7.25,-3.535 -3.36,-5.84 4.422,-2.121 6.899,4.246 3.36,5.84"
         style="fill:#1f1a17;fill-opacity:1;fill-rule:evenodd;stroke:none"
         transform="matrix(0.13333333,0,0,-0.13333333,0,128)" />
      <path
         id="path30"
         d="m 341.758,561.758 c 0.883,1.941 0.351,3.18 -0.883,4.949 -1.594,0.352 -2.125,1.238 -3.719,0 -0.883,-1.769 -0.351,-3.711 0.356,-5.305 1.945,-1.062 3.89,-1.238 4.246,0.356"
         style="fill:#1f1a17;fill-opacity:1;fill-rule:evenodd;stroke:none"
         transform="matrix(0.13333333,0,0,-0.13333333,0,128)" />
      <path
         id="path31"
         d="m 412.129,305.457 c 3.539,-0.879 5.133,4.602 1.598,5.664 -4.075,1.594 -5.133,-5.129 -1.598,-5.664"
         style="fill:#1f1a17;fill-opacity:1;fill-rule:evenodd;stroke:none"
         transform="matrix(0.13333333,0,0,-0.13333333,0,128)" />
      <path
         id="path32"
         d="M 71.1797,564.734 9.32422,599.48 7.71484,590.438 56.4922,564.141 1.61719,556.23 0,547.188 l 70.0742,11.328 1.1055,6.218"
         style="fill:#1f1a17;fill-opacity:1;fill-rule:evenodd;stroke:none"
         transform="matrix(0.13333333,0,0,-0.13333333,0,128)" />
      <path
         id="path33"
         d="m 82.0664,610.105 -64.4609,18.372 -2.4649,-8.657 64.4532,-18.379 2.4726,8.664"
         style="fill:#1f1a17;fill-opacity:1;fill-rule:evenodd;stroke:none"
         transform="matrix(0.13333333,0,0,-0.13333333,0,128)" />
      <path
         id="path34"
         d="m 99.8867,660.191 -7.3242,2.825 -7.8906,-20.45 -55.1914,21.309 -3.1367,-8.125 62.5117,-24.141 11.0312,28.582"
         style="fill:#1f1a17;fill-opacity:1;fill-rule:evenodd;stroke:none"
         transform="matrix(0.13333333,0,0,-0.13333333,0,128)" />
      <path
         id="path35"
         d="m 109.145,679.996 -45.5473,24.66 59.9103,1.856 4.597,8.508 -58.9292,31.902 -4.1485,-7.656 45.5467,-24.661 -59.906,-1.863 -4.6055,-8.508 58.9375,-31.902 4.145,7.664"
         style="fill:#1f1a17;fill-opacity:1;fill-rule:evenodd;stroke:none"
         transform="matrix(0.13333333,0,0,-0.13333333,0,128)" />
      <path
         id="path36"
         d="m 145.102,739.246 -54.7739,38.621 -5.1875,-7.359 54.7774,-38.613 5.184,7.351"
         style="fill:#1f1a17;fill-opacity:1;fill-rule:evenodd;stroke:none"
         transform="matrix(0.13333333,0,0,-0.13333333,0,128)" />
      <path
         id="path37"
         d="m 130.488,805.313 33.063,-14.79 -14.457,-16.343 z m 28.172,-47.778 -5.394,9.375 18.007,20.363 10.02,-4.128 6.09,6.882 -65.551,27.024 -4.187,-4.731 34.929,-61.668 6.086,6.883"
         style="fill:#1f1a17;fill-opacity:1;fill-rule:evenodd;stroke:none"
         transform="matrix(0.13333333,0,0,-0.13333333,0,128)" />
      <path
         id="path38"
         d="m 212.219,809.422 c 10.855,9.101 11.078,23.152 2.957,32.844 l -29.086,34.707 -6.68,-5.598 29.086,-34.707 c 5.414,-6.465 5.426,-15.566 -1.324,-21.23 -6.824,-5.711 -15.766,-3.836 -21.055,2.468 l -29.09,34.707 -6.675,-5.593 29.086,-34.707 c 8.121,-9.688 21.914,-11.993 32.781,-2.891"
         style="fill:#1f1a17;fill-opacity:1;fill-rule:evenodd;stroke:none"
         transform="matrix(0.13333333,0,0,-0.13333333,0,128)" />
      <path
         id="path39"
         d="m 245.297,871.18 c 6.246,1.484 13.098,2.883 17.105,-3.867 3.668,-6.161 1.094,-12.708 -5.57,-16.668 -7.82,-4.641 -15.984,-2.707 -20.676,5.195 l -7.488,-4.445 c 7.285,-12.266 20.324,-14.54 31.844,-7.696 10.699,6.36 15.496,17.785 9.086,28.567 -6.793,11.433 -18.461,8.953 -29.735,6.375 -6.672,-1.512 -12.945,-2.567 -16.515,3.437 -3.274,5.52 -0.95,11.348 5.054,14.922 6.672,3.957 12.965,2.355 17.239,-4.461 l 7.484,4.453 c -6.387,10.567 -18.027,13.106 -28.812,6.707 -9.708,-5.769 -14.317,-16.191 -8.161,-26.562 6.504,-10.946 17.332,-8.739 29.145,-5.957"
         style="fill:#1f1a17;fill-opacity:1;fill-rule:evenodd;stroke:none"
         transform="matrix(0.13333333,0,0,-0.13333333,0,128)" />
      <path
         id="path40"
         d="m 342.852,878.887 c 13.652,3.777 19.683,16.472 16.312,28.652 l -12.066,43.641 -8.399,-2.321 12.067,-43.644 c 2.246,-8.117 -1.52,-16.406 -10.008,-18.762 -8.578,-2.371 -15.938,3.047 -18.129,10.977 l -12.074,43.648 -8.399,-2.32 12.071,-43.641 c 3.367,-12.187 14.968,-20 28.625,-16.23"
         style="fill:#1f1a17;fill-opacity:1;fill-rule:evenodd;stroke:none"
         transform="matrix(0.13333333,0,0,-0.13333333,0,128)" />
      <path
         id="path41"
         d="m 387.871,889.941 -4.242,51.61 34.285,-49.141 9.637,0.793 -5.492,66.77 -8.676,-0.707 4.238,-51.61 -34.285,49.141 -9.637,-0.797 5.489,-66.773 8.683,0.714"
         style="fill:#1f1a17;fill-opacity:1;fill-rule:evenodd;stroke:none"
         transform="matrix(0.13333333,0,0,-0.13333333,0,128)" />
      <path
         id="path42"
         d="m 459.094,958.363 -8.989,0.535 -4.019,-66.906 8.98,-0.539 4.028,66.91"
         style="fill:#1f1a17;fill-opacity:1;fill-rule:evenodd;stroke:none"
         transform="matrix(0.13333333,0,0,-0.13333333,0,128)" />
      <path
         id="path43"
         d="m 496.254,885.742 35.644,61.356 -9.023,1.738 -26.996,-48.398 -7.113,54.996 -9.024,1.738 10.309,-70.231 6.203,-1.199"
         style="fill:#1f1a17;fill-opacity:1;fill-rule:evenodd;stroke:none"
         transform="matrix(0.13333333,0,0,-0.13333333,0,128)" />
      <path
         id="path44"
         d="m 563.227,865.137 2.726,7.351 -27.113,10.032 7.473,20.203 27.117,-10.028 2.718,7.364 -27.117,10.027 7.61,20.566 27.113,-10.027 2.726,7.363 -35.289,13.047 -23.246,-62.851 35.282,-13.047"
         style="fill:#1f1a17;fill-opacity:1;fill-rule:evenodd;stroke:none"
         transform="matrix(0.13333333,0,0,-0.13333333,0,128)" />
      <path
         id="path45"
         d="m 613.992,905.938 12.899,-7.336 c 7.574,-4.305 8.992,-13.047 5.011,-20.039 -4.015,-7.071 -12.207,-10.235 -19.777,-5.926 l -12.902,7.332 z m -29.25,-51.426 10.555,18.554 11.984,-6.816 1.012,-25.141 8.656,-4.918 -0.972,26.766 c 9.55,-1.805 18.675,2.813 23.5,11.301 6.058,10.652 3.445,24.258 -8.707,31.172 l -20.473,11.64 -33.129,-58.254 7.574,-4.304"
         style="fill:#1f1a17;fill-opacity:1;fill-rule:evenodd;stroke:none"
         transform="matrix(0.13333333,0,0,-0.13333333,0,128)" />
      <path
         id="path46"
         d="m 638.805,846.922 c -8.926,-11.133 -6.469,-24.141 3.988,-32.527 9.707,-7.786 22.086,-8.262 29.93,1.519 8.328,10.383 1.91,20.441 -4.465,30.09 -3.762,5.723 -6.953,11.223 -2.578,16.68 4.008,5 10.289,4.875 15.742,0.5 6.047,-4.844 6.758,-11.313 1.879,-17.707 l 6.797,-5.45 c 7.652,9.7 5.949,21.496 -3.836,29.348 -8.817,7.059 -20.199,7.715 -27.742,-1.691 -7.969,-9.942 -2.102,-19.305 4.66,-29.395 3.582,-5.32 7.297,-11.25 2.386,-17.375 -4.488,-5.594 -11.519,-5.484 -17.562,-0.633 -7.102,5.684 -8.152,14.016 -2.402,21.192 l -6.797,5.449"
         style="fill:#1f1a17;fill-opacity:1;fill-rule:evenodd;stroke:none"
         transform="matrix(0.13333333,0,0,-0.13333333,0,128)" />
      <path
         id="path47"
         d="m 679.883,782.535 47.793,47.004 -6.313,6.414 -47.789,-47 6.309,-6.418"
         style="fill:#1f1a17;fill-opacity:1;fill-rule:evenodd;stroke:none"
         transform="matrix(0.13333333,0,0,-0.13333333,0,128)" />
      <path
         id="path48"
         d="m 700.941,758.785 5.446,-6.797 46.191,36.953 10.879,-13.601 6.133,4.902 -27.149,33.938 -6.128,-4.907 10.82,-13.523 -46.192,-36.965"
         style="fill:#1f1a17;fill-opacity:1;fill-rule:evenodd;stroke:none"
         transform="matrix(0.13333333,0,0,-0.13333333,0,128)" />
      <path
         id="path49"
         d="m 743.809,695.867 6.707,4.082 -15.028,24.707 18.407,11.192 15.027,-24.7 6.707,4.075 -15.027,24.707 18.734,11.394 15.027,-24.707 6.711,4.082 -19.562,32.153 -57.258,-34.836 19.555,-32.149"
         style="fill:#1f1a17;fill-opacity:1;fill-rule:evenodd;stroke:none"
         transform="matrix(0.13333333,0,0,-0.13333333,0,128)" />
      <path
         id="path50"
         d="m 756.855,669.043 3.559,-7.949 53.988,24.199 7.125,-15.898 7.164,3.203 -17.773,39.668 -7.164,-3.215 7.086,-15.813 -53.985,-24.195"
         style="fill:#1f1a17;fill-opacity:1;fill-rule:evenodd;stroke:none"
         transform="matrix(0.13333333,0,0,-0.13333333,0,128)" />
      <path
         id="path51"
         d="m 826.492,634.988 -29.637,-20.8 -6.625,20.792 z m -55.453,0.313 10.805,-0.176 8.258,-25.898 -8.684,-6.485 2.793,-8.762 56.805,42.422 -1.918,6.02 -70.852,1.629 2.793,-8.75"
         style="fill:#1f1a17;fill-opacity:1;fill-rule:evenodd;stroke:none"
         transform="matrix(0.13333333,0,0,-0.13333333,0,128)" />
      <path
         id="path52"
         d="m 835.445,592.773 c -12.523,-2.296 -14.226,-13.214 -15.718,-25.265 -0.778,-6.375 -1.852,-13.289 -9.571,-14.695 -7.066,-1.29 -12.301,3.386 -13.695,11.011 -1.641,8.957 3.016,15.942 12.059,17.59 l -1.567,8.574 c -14.031,-2.566 -20.703,-14.011 -18.285,-27.195 2.238,-12.238 11.281,-20.703 23.621,-18.449 13.086,2.39 14.82,14.199 16.324,25.664 0.899,6.777 2.09,13.039 8.965,14.297 6.313,1.152 10.973,-3.059 12.231,-9.934 1.398,-7.625 -2.293,-12.976 -10.172,-14.605 l 1.57,-8.578 c 12.133,2.328 18.566,12.355 16.309,24.691 -2.032,11.109 -10.207,19.059 -22.071,16.894"
         style="fill:#1f1a17;fill-opacity:1;fill-rule:evenodd;stroke:none"
         transform="matrix(0.13333333,0,0,-0.13333333,0,128)" />
      <path
         id="path53"
         d="m 359.555,746.746 v 55.828 h -6.938 c 0,-6.695 -1.914,-9.246 -11.887,-9.246 v -5.82 h 11.329 v -40.762 h 7.496"
         style="fill:#1f1a17;fill-opacity:1;fill-rule:evenodd;stroke:none"
         transform="matrix(0.13333333,0,0,-0.13333333,0,128)" />
      <path
         id="path54"
         d="m 437.539,746.746 h 7.734 l 24.805,55.828 h -34.613 v -6.543 h 24.246 l -22.172,-49.285"
         style="fill:#1f1a17;fill-opacity:1;fill-rule:evenodd;stroke:none"
         transform="matrix(0.13333333,0,0,-0.13333333,0,128)" />
      <path
         id="path55"
         d="m 501.148,772.027 c -7.179,0 -11.886,5.664 -11.886,12.446 0,6.773 4.707,12.437 11.886,12.437 7.176,0 11.805,-5.664 11.805,-12.437 0,-6.782 -4.629,-12.446 -11.805,-12.446 z m -0.875,-25.281 16.586,26.641 c 1.996,3.269 3.352,6.941 3.352,11.242 0,10.137 -7.496,18.824 -19.063,18.824 -11.562,0 -19.14,-8.687 -19.14,-18.98 0,-10.285 7.5,-18.989 19.222,-18.989 0.954,0 2.872,0.246 3.426,0.879 l -12.761,-19.617 h 8.378"
         style="fill:#1f1a17;fill-opacity:1;fill-rule:evenodd;stroke:none"
         transform="matrix(0.13333333,0,0,-0.13333333,0,128)" />
      <path
         id="path56"
         d="m 306.941,764.688 c 4.997,0 9.051,4.05 9.051,9.05 0,4.992 -4.054,9.043 -9.051,9.043 -4.992,0 -9.043,-4.051 -9.043,-9.043 0,-5 4.051,-9.05 9.043,-9.05"
         style="fill:#1f1a17;fill-opacity:1;fill-rule:evenodd;stroke:none"
         transform="matrix(0.13333333,0,0,-0.13333333,0,128)" />
      <path
         id="path57"
         d="m 563.102,773.387 c 0,5 -4.047,9.054 -9.043,9.054 -4.996,0 -9.047,-4.054 -9.047,-9.054 0,-4.989 4.051,-9.043 9.047,-9.043 4.996,0 9.043,4.054 9.043,9.043"
         style="fill:#1f1a17;fill-opacity:1;fill-rule:evenodd;stroke:none"
         transform="matrix(0.13333333,0,0,-0.13333333,0,128)" />
      <path
         id="path58"
         d="m 27.4648,479.313 c 0,-5 4.0547,-9.051 9.0469,-9.051 4.9961,0 9.0508,4.051 9.0508,9.051 0,4.992 -4.0547,9.042 -9.0508,9.042 -4.9922,0 -9.0469,-4.05 -9.0469,-9.042"
         style="fill:#1f1a17;fill-opacity:1;fill-rule:evenodd;stroke:none"
         transform="matrix(0.13333333,0,0,-0.13333333,0,128)" />
      <path
         id="path59"
         d="m 823.539,486.043 c -3.75,-3.301 -4.113,-9.023 -0.816,-12.773 3.3,-3.75 9.019,-4.114 12.769,-0.809 3.75,3.301 4.113,9.012 0.813,12.762 -3.301,3.75 -9.016,4.121 -12.766,0.82"
         style="fill:#1f1a17;fill-opacity:1;fill-rule:evenodd;stroke:none"
         transform="matrix(0.13333333,0,0,-0.13333333,0,128)" />
      <path
         id="path60"
         d="m 404.609,784.805 c -5.414,0 -10.019,-1.86 -12.847,-5.657 v 16.883 h 26.75 v 6.543 h -33.453 v -30.777 h 6.867 c 2.179,4.93 5.656,7.027 11.711,7.027 6.871,0 11.152,-4.844 11.152,-12.605 0,-7.918 -4.605,-12.93 -12.117,-12.93 -5.695,0 -9.934,2.805 -10.891,7.41 h -6.91 c 1.168,-8.277 7.797,-13.953 17.723,-13.953 11.711,0 19.304,8.399 19.304,19.719 0,11.14 -6.703,18.34 -17.289,18.34"
         style="fill:#1f1a17;fill-opacity:1;fill-rule:nonzero;stroke:none"
         transform="matrix(0.13333333,0,0,-0.13333333,0,128)" />
    </g>
  </g>
</svg>
